<svg xmlns="http://www.w3.org/2000/svg" version="1.1" xmlns:xlink="http://www.w3.org/1999/xlink" xmlns:svgjs="http://svgjs.dev/svgjs" width="1500" height="1500" viewBox="0 0 1500 1500"><rect width="1500" height="1500" fill="#ffffff"></rect><g transform="matrix(0.6666666666666666,0,0,0.6666666666666666,249.39393939393938,438.58569500674764)"><svg viewBox="0 0 396 247" data-background-color="#ffffff" preserveAspectRatio="xMidYMid meet" height="935" width="1500" xmlns="http://www.w3.org/2000/svg" xmlns:xlink="http://www.w3.org/1999/xlink"><g id="tight-bounds" transform="matrix(1,0,0,1,0.2400000000000091,-0.09999999999999432)"><svg viewBox="0 0 395.52 247.2" height="247.2" width="395.52"><g><svg></svg></g><g><svg viewBox="0 0 395.52 247.2" height="247.2" width="395.52"><g transform="matrix(1,0,0,1,75.54432,96.12818881006811)"><svg viewBox="0 0 244.43135999999998 54.94362237986378" height="54.94362237986378" width="244.43135999999998"><g><svg viewBox="0 0 244.43135999999998 54.94362237986378" height="54.94362237986378" width="244.43135999999998"><g><svg viewBox="0 0 244.43135999999998 54.94362237986378" height="54.94362237986378" width="244.43135999999998"><g><svg viewBox="0 0 244.43135999999998 54.94362237986378" height="54.94362237986378" width="244.43135999999998"><g id="textblocktransform"><svg viewBox="0 0 244.43135999999998 54.94362237986378" height="54.94362237986378" width="244.43135999999998" id="textblock"><g><svg viewBox="0 0 244.43135999999998 29.63396450839328" height="29.63396450839328" width="244.43135999999998"><g transform="matrix(1,0,0,1,0,0)"><svg width="244.43135999999998" viewBox="4.75 -35.5 375.26 45.5" height="29.63396450839328" data-palette-color="#7752fe"><path d="M4.75 0L4.75-29 6.25-29 6.25 0 4.75 0ZM17.25 0L15.75 0 15.75-29 17.25-29 33.55-2.75 33.55-29 35.05-29 35.05 0 33.55 0 17.25-26.3 17.25 0ZM45.55 0L44.05 0 44.05-14.5Q44.05-22.4 46.77-25.95 49.5-29.5 55.7-29.5L55.7-29.5Q62.95-29.5 65.55-24.75L65.55-24.75 55.09-16 65.75-16 65.75-14.5 50.95-14.5 63.59-25.05Q61.4-28 55.7-28L55.7-28Q53.2-28 51.5-27.48 49.8-26.95 48.37-25.53 46.95-24.1 46.25-21.38 45.55-18.65 45.55-14.5L45.55-14.5 45.55 0ZM73.24 0L73.24-29 74.74-29 74.74 0 73.24 0ZM85.74 0L84.24 0 84.24-29 85.74-29 102.04-2.75 102.04-29 103.54-29 103.54 0 102.04 0 85.74-26.3 85.74 0ZM113.04 0L113.04-29 114.54-29 114.54 0 113.04 0ZM120.29-29L142.79-29 142.79-27.5 132.29-27.5 132.29 0 130.79 0 130.79-27.5 120.29-27.5 120.29-29ZM150.28-27.5L150.28-29 169.63-29 157.88-1.25 157.88 10 156.38 10 156.38-1.25 144.63-29 146.23-29 157.13-3.35 167.38-27.5 150.28-27.5ZM174.38-26.35L174.38-26.35Q174.38-31.2 176.83-33.35 179.28-35.5 184.78-35.5L184.78-35.5Q188.63-35.5 190.98-33.5 193.33-31.5 194.38-27.4L194.38-27.4 189.73-23.9 187.28-23.9 192.68-27.95Q191.63-31.3 189.66-32.65 187.68-34 184.78-34L184.78-34Q182.78-34 181.41-33.75 180.03-33.5 178.66-32.77 177.28-32.05 176.58-30.45 175.88-28.85 175.88-26.35L175.88-26.35Q175.88-24.15 177.91-22.45 179.93-20.75 182.83-19.55 185.73-18.35 188.66-17.1 191.58-15.85 193.61-13.9 195.63-11.95 195.63-9.4L195.63-9.4Q195.63-4.4 193.16-1.95 190.68 0.5 184.68 0.5L184.68 0.5Q179.78 0.5 176.98-1.48 174.18-3.45 173.13-7.6L173.13-7.6 174.53-8.2Q175.53-4.15 177.96-2.58 180.38-1 184.68-1L184.68-1Q189.48-1 191.81-2.85 194.13-4.7 194.13-9.4L194.13-9.4Q194.13-11.6 192.11-13.3 190.08-15 187.16-16.2 184.23-17.4 181.33-18.65 178.43-19.9 176.41-21.85 174.38-23.8 174.38-26.35ZM204.73-3.05Q202.03-6.6 202.03-14.5 202.03-22.4 204.73-25.95 207.43-29.5 213.68-29.5 219.93-29.5 222.68-26.05L222.68-26.05 221.58-25.05Q219.38-28 213.68-28L213.68-28Q211.18-28 209.48-27.48 207.78-26.95 206.35-25.53 204.93-24.1 204.23-21.38 203.53-18.65 203.53-14.5 203.53-10.35 204.23-7.63 204.93-4.9 206.35-3.48 207.78-2.05 209.48-1.53 211.18-1 213.68-1L213.68-1Q219.38-1 221.58-3.95L221.58-3.95 222.68-2.95Q219.93 0.5 213.68 0.5 207.43 0.5 204.73-3.05ZM242.33-14.55L242.33-14.55 249.13 0 247.48 0 240.48-15Q240.58-15.05 241.35-15.43 242.13-15.8 242.43-15.98 242.73-16.15 243.43-16.6 244.13-17.05 244.48-17.48 244.83-17.9 245.25-18.48 245.68-19.05 245.88-19.78 246.08-20.5 246.08-21.35L246.08-21.35Q246.08-24.5 243.08-26 240.08-27.5 235.63-27.5L235.63-27.5 231.63-27.5 231.63 0 230.13 0 230.13-29 235.63-29Q241.53-29 244.55-26.95 247.58-24.9 247.58-21.35L247.58-21.35Q247.58-19.05 246.03-17.28 244.48-15.5 242.33-14.55ZM255.92 0L255.92-29 257.42-29 257.42 0 255.92 0ZM282.12-12.4L279.32-10.8 278.57-12.1 281.37-13.7Q284.82-15.6 284.82-19.75L284.82-19.75Q284.82-27.5 273.02-27.5L273.02-27.5 268.42-27.5 268.42 10 266.92 10 266.92-29 273.02-29Q279.62-29 282.97-26.58 286.32-24.15 286.32-19.75L286.32-19.75Q286.32-14.75 282.12-12.4L282.12-12.4ZM289.62-29L312.12-29 312.12-27.5 301.62-27.5 301.62 0 300.12 0 300.12-27.5 289.62-27.5 289.62-29ZM317.06 0L317.06-2.9 320.37-2.9 320.37 0 317.06 0ZM349.61-7.05L350.96-6.4Q349.61-3.1 347.16-1.3 344.71 0.5 339.81 0.5L339.81 0.5Q333.66 0.5 330.91-3.28 328.16-7.05 328.16-15.05L328.16-15.05 328.16-19.95Q328.16-27.95 330.91-31.73 333.66-35.5 339.81-35.5L339.81-35.5Q344.71-35.5 347.16-33.7 349.61-31.9 350.96-28.6L350.96-28.6 349.61-27.95Q348.46-30.85 346.36-32.43 344.26-34 339.81-34L339.81-34Q337.36-34 335.61-33.38 333.86-32.75 332.46-31.25 331.06-29.75 330.36-26.93 329.66-24.1 329.66-19.95L329.66-19.95 329.66-15.05Q329.66-10.9 330.36-8.08 331.06-5.25 332.46-3.75 333.86-2.25 335.61-1.63 337.36-1 339.81-1L339.81-1Q344.26-1 346.36-2.58 348.46-4.15 349.61-7.05L349.61-7.05ZM359.51-33.5L359.51-35 380.01-35 367.26 0.05 354.51-35 356.11-35 367.26-4.35 377.86-33.5 359.51-33.5Z" opacity="1" transform="matrix(1,0,0,1,0,0)" fill="#000000" class="wordmark-text-0" data-fill-palette-color="primary" id="text-0"></path></svg></g></svg></g><g transform="matrix(1,0,0,1,0,36.62983231367673)"><svg viewBox="0 0 244.43135999999998 18.313790066187046" height="18.313790066187046" width="244.43135999999998"><g transform="matrix(1,0,0,1,0,0)"><svg width="244.43135999999998" viewBox="1.7 -37.25 586.5899999999999 43.95" height="18.313790066187046" data-palette-color="#7752fe"><path d="M26.7 5.95L26.7 5.95 14.5 5.95Q7.95 5.95 4.83 2.55 1.7-0.85 1.7-6.25L1.7-6.25 1.7-20.3Q1.7-23.05 2.5-25.08 3.3-27.1 4.85-28.45L4.85-28.45 11.35-33.9Q12.9-35.2 15.3-35.85 17.7-36.5 20.95-36.5L20.95-36.5 33.15-36.5Q34.35-36.5 34.9-35.95 35.45-35.4 35.45-34.2L35.45-34.2 35.45-28.15Q35.45-27.5 35.27-27.05 35.1-26.6 34.75-26.3L34.75-26.3 28.25-20.9Q28.05-20.7 27.63-20.55 27.2-20.4 26.7-20.4L26.7-20.4 20.55-20.4 20.55-11.95Q20.55-10.9 21.2-10.48 21.85-10.05 23.1-10.05L23.1-10.05 33.15-10.05Q34.35-10.05 34.9-9.5 35.45-8.95 35.45-7.75L35.45-7.75 35.45-1.8Q35.45-1.15 35.27-0.7 35.1-0.25 34.75 0.05L34.75 0.05 28.25 5.45Q28.05 5.65 27.63 5.8 27.2 5.95 26.7 5.95ZM20.95 0L33.15 0Q34.1 0 34.52-0.43 34.95-0.85 34.95-1.8L34.95-1.8 34.95-7.75Q34.95-8.7 34.52-9.13 34.1-9.55 33.15-9.55L33.15-9.55 23.1-9.55Q21.55-9.55 20.8-10.13 20.05-10.7 20.05-11.95L20.05-11.95 20.05-23.85Q20.05-25.1 20.8-25.73 21.55-26.35 23.1-26.35L23.1-26.35 33.15-26.35Q34.1-26.35 34.52-26.78 34.95-27.2 34.95-28.15L34.95-28.15 34.95-34.2Q34.95-35.15 34.52-35.58 34.1-36 33.15-36L33.15-36 20.95-36Q14.7-36 11.68-33.48 8.65-30.95 8.65-25.75L8.65-25.75 8.65-10.2Q8.65-5 11.68-2.5 14.7 0 20.95 0L20.95 0ZM22.05-5L30.4-5 30.4-4.5 22.05-4.5Q17.2-4.5 15.63-6 14.05-7.5 14.05-10.95L14.05-10.95 14.05-24.95Q14.05-28.5 15.65-30 17.25-31.5 22.05-31.5L22.05-31.5 30.4-31.5 30.4-31 22.05-31Q17.65-31 16.1-29.63 14.55-28.25 14.55-24.95L14.55-24.95 14.55-10.95Q14.55-7.7 16.05-6.35 17.55-5 22.05-5L22.05-5ZM84.67 5.95L71.67 5.95Q70.52 5.95 69.82 5.53 69.12 5.1 68.67 4L68.67 4 63.77-8.25Q63.32-9.4 63-10.23 62.67-11.05 62.47-11.83 62.27-12.6 62.2-13.48 62.12-14.35 62.12-15.55L62.12-15.55 62.12-28.75Q62.12-29.4 62.3-29.85 62.47-30.3 62.82-30.6L62.82-30.6 69.27-36.05Q69.52-36.25 69.95-36.38 70.37-36.5 70.87-36.5L70.87-36.5 78.82-36.5Q80.02-36.5 80.65-35.93 81.27-35.35 81.27-34.2L81.27-34.2 81.27-20.4Q81.27-19.9 81.37-19.45 81.47-19 81.62-18.5L81.62-18.5 81.77-18.15 81.77-28.75Q81.77-29.4 81.95-29.85 82.12-30.3 82.47-30.6L82.47-30.6 88.92-36.05Q89.17-36.25 89.6-36.38 90.02-36.5 90.52-36.5L90.52-36.5 98.37-36.5Q99.62-36.5 100.15-35.95 100.67-35.4 100.67-34.2L100.67-34.2 100.67-21Q100.67-19.8 100.6-18.93 100.52-18.05 100.32-17.28 100.12-16.5 99.8-15.68 99.47-14.85 99.02-13.7L99.02-13.7 94.12-1.45Q93.97-1 93.72-0.65 93.47-0.3 93.22-0.1L93.22-0.1 86.77 5.25Q86.37 5.6 85.85 5.78 85.32 5.95 84.67 5.95L84.67 5.95ZM78.12 0L91.12 0Q92.07 0 92.7-0.35 93.32-0.7 93.67-1.65L93.67-1.65 98.57-13.9Q99.02-15 99.32-15.83 99.62-16.65 99.82-17.4 100.02-18.15 100.1-18.98 100.17-19.8 100.17-21L100.17-21 100.17-34.2Q100.17-35.15 99.75-35.58 99.32-36 98.37-36L98.37-36 90.52-36Q89.57-36 89.15-35.58 88.72-35.15 88.72-34.2L88.72-34.2 88.72-20.45Q88.72-19.95 88.62-19.45 88.52-18.95 88.32-18.4L88.32-18.4 85.97-11.35Q85.82-10.85 85.62-10.68 85.42-10.5 85.02-10.5L85.02-10.5 84.47-10.5Q84.07-10.5 83.87-10.68 83.67-10.85 83.52-11.35L83.52-11.35 81.17-18.35Q80.97-18.9 80.87-19.4 80.77-19.9 80.77-20.4L80.77-20.4 80.77-34.2Q80.77-35.15 80.27-35.58 79.77-36 78.82-36L78.82-36 70.87-36Q69.92-36 69.5-35.58 69.07-35.15 69.07-34.2L69.07-34.2 69.07-21Q69.07-19.8 69.15-18.98 69.22-18.15 69.42-17.4 69.62-16.65 69.92-15.83 70.22-15 70.67-13.9L70.67-13.9 75.57-1.65Q75.92-0.7 76.55-0.35 77.17 0 78.12 0L78.12 0ZM74.72-20.7L74.72-31.5 75.22-31.5 75.22-20.7Q75.22-19.4 75.42-18.23 75.62-17.05 76.02-16.05L76.02-16.05 79.32-8.05Q79.82-6.75 80.45-5.88 81.07-5 82.47-5L82.47-5 86.87-5Q88.27-5 88.9-5.88 89.52-6.75 90.02-8.05L90.02-8.05 93.32-16.05Q93.72-17.05 93.92-18.23 94.12-19.4 94.12-20.7L94.12-20.7 94.12-31.5 94.62-31.5 94.62-20.7Q94.62-19.3 94.45-18.13 94.27-16.95 93.82-15.85L93.82-15.85 90.52-7.85Q89.92-6.4 89.17-5.45 88.42-4.5 86.87-4.5L86.87-4.5 82.47-4.5Q80.92-4.5 80.17-5.45 79.42-6.4 78.82-7.85L78.82-7.85 75.52-15.85Q75.07-16.95 74.9-18.13 74.72-19.3 74.72-20.7L74.72-20.7ZM193.26 5.95L193.26 5.95 181.06 5.95Q174.51 5.95 171.39 2.55 168.26-0.85 168.26-6.25L168.26-6.25 168.26-20.3Q168.26-23.05 169.06-25.08 169.86-27.1 171.41-28.45L171.41-28.45 177.91-33.9Q179.46-35.2 181.86-35.85 184.26-36.5 187.51-36.5L187.51-36.5 199.71-36.5Q200.91-36.5 201.46-35.95 202.01-35.4 202.01-34.2L202.01-34.2 202.01-28.15Q202.01-27.5 201.84-27.05 201.66-26.6 201.31-26.3L201.31-26.3 194.81-20.9Q194.61-20.7 194.19-20.55 193.76-20.4 193.26-20.4L193.26-20.4 187.11-20.4 187.11-11.95Q187.11-10.9 187.76-10.48 188.41-10.05 189.66-10.05L189.66-10.05 199.71-10.05Q200.91-10.05 201.46-9.5 202.01-8.95 202.01-7.75L202.01-7.75 202.01-1.8Q202.01-1.15 201.84-0.7 201.66-0.25 201.31 0.05L201.31 0.05 194.81 5.45Q194.61 5.65 194.19 5.8 193.76 5.95 193.26 5.95ZM187.51 0L199.71 0Q200.66 0 201.09-0.43 201.51-0.85 201.51-1.8L201.51-1.8 201.51-7.75Q201.51-8.7 201.09-9.13 200.66-9.55 199.71-9.55L199.71-9.55 189.66-9.55Q188.11-9.55 187.36-10.13 186.61-10.7 186.61-11.95L186.61-11.95 186.61-23.85Q186.61-25.1 187.36-25.73 188.11-26.35 189.66-26.35L189.66-26.35 199.71-26.35Q200.66-26.35 201.09-26.78 201.51-27.2 201.51-28.15L201.51-28.15 201.51-34.2Q201.51-35.15 201.09-35.58 200.66-36 199.71-36L199.71-36 187.51-36Q181.26-36 178.24-33.48 175.21-30.95 175.21-25.75L175.21-25.75 175.21-10.2Q175.21-5 178.24-2.5 181.26 0 187.51 0L187.51 0ZM188.61-5L196.96-5 196.96-4.5 188.61-4.5Q183.76-4.5 182.19-6 180.61-7.5 180.61-10.95L180.61-10.95 180.61-24.95Q180.61-28.5 182.21-30 183.81-31.5 188.61-31.5L188.61-31.5 196.96-31.5 196.96-31 188.61-31Q184.21-31 182.66-29.63 181.11-28.25 181.11-24.95L181.11-24.95 181.11-10.95Q181.11-7.7 182.61-6.35 184.11-5 188.61-5L188.61-5ZM253.19-31L253.19-31 242.29-31 242.29-16.55 253.19-16.55Q256.29-16.55 257.34-18.05 258.39-19.55 258.39-22.3L258.39-22.3 258.39-25.8Q258.39-28.1 257.11-29.55 255.84-31 253.19-31ZM247.69-20.6L247.69-27 251.44-27Q252.74-27 253.19-26.33 253.64-25.65 253.64-24.65L253.64-24.65 253.64-22.95Q253.64-21.95 253.19-21.28 252.74-20.6 251.44-20.6L251.44-20.6 247.69-20.6ZM242.29-16.1L242.29-4.5 241.79-4.5 241.79-31.5 253.19-31.5Q256.09-31.5 257.49-29.88 258.89-28.25 258.89-25.8L258.89-25.8 258.89-22.35Q258.89-20.05 258.29-18.57 257.69-17.1 255.89-16.55L255.89-16.55 256.44-16.55Q259.49-16.55 260.99-15.18 262.49-13.8 262.49-11.2L262.49-11.2 262.49-4.5 261.99-4.5 261.99-11.2Q261.99-13.65 260.64-14.88 259.29-16.1 256.44-16.1L256.44-16.1 242.29-16.1ZM238.19 0L245.89 0Q246.84 0 247.26-0.43 247.69-0.85 247.69-1.8L247.69-1.8 247.69-11.6 254.69-11.6Q255.74-11.6 256.16-11.08 256.59-10.55 256.59-9.45L256.59-9.45 256.59-1.8Q256.59-0.85 257.01-0.43 257.44 0 258.39 0L258.39 0 266.14 0Q267.09 0 267.51-0.43 267.94-0.85 267.94-1.8L267.94-1.8 267.94-12.4Q267.94-15.55 266.26-17.45 264.59-19.35 261.89-19.65L261.89-19.65Q263.44-20.3 264.06-21.78 264.69-23.25 264.69-25.35L264.69-25.35 264.69-27.65Q264.69-31.35 262.56-33.68 260.44-36 254.84-36L254.84-36 238.19-36Q237.24-36 236.81-35.58 236.39-35.15 236.39-34.2L236.39-34.2 236.39-1.8Q236.39-0.85 236.81-0.43 237.24 0 238.19 0L238.19 0ZM247.49 0.05L247.49 0.05 240.99 5.45Q240.79 5.65 240.36 5.8 239.94 5.95 239.44 5.95L239.44 5.95 231.74 5.95Q230.54 5.95 229.99 5.4 229.44 4.85 229.44 3.65L229.44 3.65 229.44-28.75Q229.44-29.4 229.61-29.85 229.79-30.3 230.14-30.6L230.14-30.6 236.59-36.05Q236.84-36.25 237.26-36.38 237.69-36.5 238.19-36.5L238.19-36.5 254.84-36.5Q260.79-36.5 262.99-34.02 265.19-31.55 265.19-27.65L265.19-27.65 265.19-25.35Q265.19-23.5 264.74-22.13 264.29-20.75 263.29-19.9L263.29-19.9 263.24-19.9Q265.59-19.25 267.01-17.3 268.44-15.35 268.44-12.4L268.44-12.4 268.44-1.8Q268.44-1.15 268.26-0.7 268.09-0.25 267.74 0.05L267.74 0.05 261.24 5.45Q261.04 5.65 260.61 5.8 260.19 5.95 259.69 5.95L259.69 5.95 251.94 5.95Q250.74 5.95 250.19 5.4 249.64 4.85 249.64 3.65L249.64 3.65 249.64-4Q249.64-4.8 249.34-5.23 249.04-5.65 248.24-5.65L248.24-5.65 248.19-5.65 248.19-1.8Q248.19-1.15 248.01-0.7 247.84-0.25 247.49 0.05ZM321.31 5.95L321.31 5.95 298.11 5.95Q296.91 5.95 296.36 5.4 295.81 4.85 295.81 3.65L295.81 3.65 295.81-28.75Q295.81-29.4 295.98-29.85 296.16-30.3 296.51-30.6L296.51-30.6 302.96-36.05Q303.21-36.25 303.63-36.38 304.06-36.5 304.56-36.5L304.56-36.5 327.76-36.5Q328.96-36.5 329.51-35.95 330.06-35.4 330.06-34.2L330.06-34.2 330.06-28.35Q330.06-27.7 329.88-27.25 329.71-26.8 329.36-26.5L329.36-26.5 325.06-22.95Q325.56-22.7 325.78-22.2 326.01-21.7 326.01-20.9L326.01-20.9 326.01-15.55Q326.01-14.9 325.83-14.45 325.66-14 325.31-13.7L325.31-13.7 320.86-9.95 327.76-9.95Q328.96-9.95 329.51-9.4 330.06-8.85 330.06-7.65L330.06-7.65 330.06-1.8Q330.06-1.15 329.88-0.7 329.71-0.25 329.36 0.05L329.36 0.05 322.86 5.45Q322.66 5.65 322.23 5.8 321.81 5.95 321.31 5.95ZM304.56 0L327.76 0Q328.71 0 329.13-0.43 329.56-0.85 329.56-1.8L329.56-1.8 329.56-7.65Q329.56-8.6 329.13-9.03 328.71-9.45 327.76-9.45L327.76-9.45 313.96-9.45 313.96-13.75 323.71-13.75Q324.66-13.75 325.08-14.18 325.51-14.6 325.51-15.55L325.51-15.55 325.51-20.9Q325.51-21.85 325.08-22.28 324.66-22.7 323.71-22.7L323.71-22.7 313.96-22.7 313.96-26.55 327.76-26.55Q328.71-26.55 329.13-26.98 329.56-27.4 329.56-28.35L329.56-28.35 329.56-34.2Q329.56-35.15 329.13-35.58 328.71-36 327.76-36L327.76-36 304.56-36Q303.61-36 303.18-35.58 302.76-35.15 302.76-34.2L302.76-34.2 302.76-1.8Q302.76-0.85 303.18-0.43 303.61 0 304.56 0L304.56 0ZM308.71-5L325.06-5 325.06-4.5 308.21-4.5 308.21-31.5 325.06-31.5 325.06-31 308.71-31 308.71-18.45 321.01-18.45 321.01-17.95 308.71-17.95 308.71-5ZM369.73-15.15L369.73-15.15 369.73-13.6 389.23-13.6 389.23-15.15Q389.23-16.5 389-17.65 388.78-18.8 388.43-19.8L388.43-19.8 384.98-27.95Q384.43-29.25 383.83-30.13 383.23-31 381.83-31L381.83-31 376.93-31Q375.43-31 374.83-30.13 374.23-29.25 373.73-28L373.73-28 370.53-19.8Q370.18-18.8 369.95-17.65 369.73-16.5 369.73-15.15ZM375.38-17.9L377.73-25.5Q377.93-25.95 378.15-26.15 378.38-26.35 378.68-26.35L378.68-26.35 379.93-26.35Q380.23-26.35 380.45-26.15 380.68-25.95 380.88-25.5L380.88-25.5 383.23-17.9 375.38-17.9ZM389.73-4.5L389.23-4.5 389.23-13.1 369.73-13.1 369.73-4.5 369.23-4.5 369.23-15.15Q369.23-16.55 369.45-17.73 369.68-18.9 370.08-20L370.08-20 373.28-28.2Q373.83-29.6 374.53-30.55 375.23-31.5 376.93-31.5L376.93-31.5 381.83-31.5Q383.48-31.5 384.15-30.55 384.83-29.6 385.43-28.15L385.43-28.15 388.88-20Q389.28-18.9 389.5-17.73 389.73-16.55 389.73-15.15L389.73-15.15 389.73-4.5ZM374.88-1.8L374.88-1.8 374.88-8.8 383.73-8.8 383.73-1.8Q383.73-0.85 384.2-0.43 384.68 0 385.68 0L385.68 0 393.23 0Q394.18 0 394.6-0.43 395.03-0.85 395.03-1.8L395.03-1.8 395.03-15Q395.03-16.5 394.55-18.45 394.08-20.4 393.08-23L393.08-23 388.73-34.35Q388.43-35.2 387.8-35.6 387.18-36 386.23-36L386.23-36 372.78-36Q371.78-36 371.15-35.6 370.53-35.2 370.23-34.35L370.23-34.35 365.88-23Q364.88-20.4 364.4-18.45 363.93-16.5 363.93-15L363.93-15 363.93-1.8Q363.93-0.85 364.35-0.43 364.78 0 365.73 0L365.73 0 373.08 0Q374.03 0 374.45-0.43 374.88-0.85 374.88-1.8ZM374.68 0.05L368.18 5.45Q367.98 5.65 367.55 5.8 367.13 5.95 366.63 5.95L366.63 5.95 359.28 5.95Q358.08 5.95 357.53 5.4 356.98 4.85 356.98 3.65L356.98 3.65 356.98-9.55Q356.98-11.1 357.45-13.08 357.93-15.05 358.98-17.75L358.98-17.75 363.28-29.05Q363.43-29.5 363.65-29.83 363.88-30.15 364.13-30.4L364.13-30.4 364.18-30.45 370.58-35.8Q370.98-36.15 371.53-36.33 372.08-36.5 372.78-36.5L372.78-36.5 386.23-36.5Q387.38-36.5 388.1-36.02 388.83-35.55 389.18-34.55L389.18-34.55 393.53-23.2Q394.58-20.5 395.05-18.53 395.53-16.55 395.53-15L395.53-15 395.53-1.8Q395.53-1.15 395.35-0.7 395.18-0.25 394.83 0.05L394.83 0.05 388.33 5.45Q388.13 5.65 387.7 5.8 387.28 5.95 386.78 5.95L386.78 5.95 379.23 5.95Q377.98 5.95 377.38 5.38 376.78 4.8 376.78 3.65L376.78 3.65 376.78-2.85 375.38-2.85 375.38-1.8Q375.38-1.15 375.2-0.7 375.03-0.25 374.68 0.05L374.68 0.05ZM438.95 5.95L438.95 5.95 430.85 5.95Q429.65 5.95 429.1 5.4 428.55 4.85 428.55 3.65L428.55 3.65 428.55-20.4 421.7-20.4Q420.5-20.4 419.95-20.95 419.4-21.5 419.4-22.7L419.4-22.7 419.4-28.75Q419.4-29.4 419.58-29.85 419.75-30.3 420.1-30.6L420.1-30.6 426.55-36.05Q426.8-36.25 427.23-36.38 427.65-36.5 428.15-36.5L428.15-36.5 454.55-36.5Q455.75-36.5 456.3-35.95 456.85-35.4 456.85-34.2L456.85-34.2 456.85-28.15Q456.85-27.5 456.68-27.05 456.5-26.6 456.15-26.3L456.15-26.3 449.65-20.9Q449.45-20.7 449.03-20.55 448.6-20.4 448.1-20.4L448.1-20.4 447.7-20.4 447.7-1.8Q447.7-1.15 447.53-0.7 447.35-0.25 447 0.05L447 0.05 440.5 5.45Q440.3 5.65 439.88 5.8 439.45 5.95 438.95 5.95ZM437.3 0L445.4 0Q446.35 0 446.78-0.43 447.2-0.85 447.2-1.8L447.2-1.8 447.2-26.35 454.55-26.35Q455.5-26.35 455.93-26.78 456.35-27.2 456.35-28.15L456.35-28.15 456.35-34.2Q456.35-35.15 455.93-35.58 455.5-36 454.55-36L454.55-36 428.15-36Q427.2-36 426.78-35.58 426.35-35.15 426.35-34.2L426.35-34.2 426.35-28.15Q426.35-27.2 426.78-26.78 427.2-26.35 428.15-26.35L428.15-26.35 435.5-26.35 435.5-1.8Q435.5-0.85 435.93-0.43 436.35 0 437.3 0L437.3 0ZM441.6-4.5L441.1-4.5 441.1-31 430.85-31 430.85-31.5 451.85-31.5 451.85-31 441.6-31 441.6-4.5ZM518.17-1.85L511.72 3.55Q509.97 5.05 506.82 5.88 503.67 6.7 498.72 6.7L498.72 6.7Q493.82 6.7 490.7 5.68 487.57 4.65 485.8 2.95 484.02 1.25 483.35-0.95 482.67-3.15 482.67-5.5L482.67-5.5 482.67-21.05Q482.67-23.35 483.32-25.33 483.97-27.3 485.67-28.7L485.67-28.7 492.17-34.1Q493.92-35.6 497.05-36.43 500.17-37.25 505.17-37.25L505.17-37.25Q510.07-37.25 513.2-36.45 516.32-35.65 518.1-34.23 519.87-32.8 520.52-30.83 521.17-28.85 521.17-26.5L521.17-26.5 521.17-9.45Q521.17-7.15 520.52-5.2 519.87-3.25 518.17-1.85L518.17-1.85ZM520.67-9.45L520.67-9.45 520.67-26.5Q520.67-28.8 520-30.68 519.32-32.55 517.6-33.9 515.87-35.25 512.85-36 509.82-36.75 505.17-36.75L505.17-36.75Q500.52-36.75 497.47-36 494.42-35.25 492.7-33.9 490.97-32.55 490.3-30.68 489.62-28.8 489.62-26.5L489.62-26.5 489.62-9.45Q489.62-7.15 490.3-5.28 490.97-3.4 492.7-2.08 494.42-0.75 497.47 0 500.52 0.75 505.17 0.75L505.17 0.75Q509.82 0.75 512.85 0 515.87-0.75 517.6-2.08 519.32-3.4 520-5.28 520.67-7.15 520.67-9.45ZM515.22-25.35L515.22-10.6Q515.22-7.6 513.07-5.73 510.92-3.85 505.07-3.85L505.07-3.85Q499.22-3.85 497.12-5.73 495.02-7.6 495.02-10.6L495.02-10.6 495.02-25.35Q495.02-28.35 497.12-30.23 499.22-32.1 505.07-32.1L505.07-32.1Q510.92-32.1 513.07-30.23 515.22-28.35 515.22-25.35L515.22-25.35ZM495.52-25.35L495.52-10.6Q495.52-7.8 497.52-6.08 499.52-4.35 505.07-4.35L505.07-4.35Q510.62-4.35 512.67-6.08 514.72-7.8 514.72-10.6L514.72-10.6 514.72-25.35Q514.72-28.15 512.67-29.88 510.62-31.6 505.07-31.6L505.07-31.6Q499.52-31.6 497.52-29.88 495.52-28.15 495.52-25.35L495.52-25.35ZM500.97-11.25L500.97-11.25 500.97-24.7Q500.97-25.65 501.72-26.33 502.47-27 505.17-27L505.17-27Q507.87-27 508.62-26.33 509.37-25.65 509.37-24.7L509.37-24.7 509.37-11.25Q509.37-10.25 508.62-9.58 507.87-8.9 505.17-8.9L505.17-8.9Q502.47-8.9 501.72-9.58 500.97-10.25 500.97-11.25ZM501.47-20.7L501.47-11.25Q501.47-10.75 501.67-10.38 501.87-10 502.42-9.75L502.42-9.75 502.42-19.25Q502.42-19.75 502.22-20.13 502.02-20.5 501.47-20.7L501.47-20.7ZM573.04-31L573.04-31 562.14-31 562.14-16.55 573.04-16.55Q576.14-16.55 577.19-18.05 578.24-19.55 578.24-22.3L578.24-22.3 578.24-25.8Q578.24-28.1 576.97-29.55 575.69-31 573.04-31ZM567.54-20.6L567.54-27 571.29-27Q572.59-27 573.04-26.33 573.49-25.65 573.49-24.65L573.49-24.65 573.49-22.95Q573.49-21.95 573.04-21.28 572.59-20.6 571.29-20.6L571.29-20.6 567.54-20.6ZM562.14-16.1L562.14-4.5 561.64-4.5 561.64-31.5 573.04-31.5Q575.94-31.5 577.34-29.88 578.74-28.25 578.74-25.8L578.74-25.8 578.74-22.35Q578.74-20.05 578.14-18.57 577.54-17.1 575.74-16.55L575.74-16.55 576.29-16.55Q579.34-16.55 580.84-15.18 582.34-13.8 582.34-11.2L582.34-11.2 582.34-4.5 581.84-4.5 581.84-11.2Q581.84-13.65 580.49-14.88 579.14-16.1 576.29-16.1L576.29-16.1 562.14-16.1ZM558.04 0L565.74 0Q566.69 0 567.12-0.43 567.54-0.85 567.54-1.8L567.54-1.8 567.54-11.6 574.54-11.6Q575.59-11.6 576.02-11.08 576.44-10.55 576.44-9.45L576.44-9.45 576.44-1.8Q576.44-0.85 576.87-0.43 577.29 0 578.24 0L578.24 0 585.99 0Q586.94 0 587.37-0.43 587.79-0.85 587.79-1.8L587.79-1.8 587.79-12.4Q587.79-15.55 586.12-17.45 584.44-19.35 581.74-19.65L581.74-19.65Q583.29-20.3 583.92-21.78 584.54-23.25 584.54-25.35L584.54-25.35 584.54-27.65Q584.54-31.35 582.42-33.68 580.29-36 574.69-36L574.69-36 558.04-36Q557.09-36 556.67-35.58 556.24-35.15 556.24-34.2L556.24-34.2 556.24-1.8Q556.24-0.85 556.67-0.43 557.09 0 558.04 0L558.04 0ZM567.34 0.05L567.34 0.05 560.84 5.45Q560.64 5.65 560.22 5.8 559.79 5.95 559.29 5.95L559.29 5.95 551.59 5.95Q550.39 5.95 549.84 5.4 549.29 4.85 549.29 3.65L549.29 3.65 549.29-28.75Q549.29-29.4 549.47-29.85 549.64-30.3 549.99-30.6L549.99-30.6 556.44-36.05Q556.69-36.25 557.12-36.38 557.54-36.5 558.04-36.5L558.04-36.5 574.69-36.5Q580.64-36.5 582.84-34.02 585.04-31.55 585.04-27.65L585.04-27.65 585.04-25.35Q585.04-23.5 584.59-22.13 584.14-20.75 583.14-19.9L583.14-19.9 583.09-19.9Q585.44-19.25 586.87-17.3 588.29-15.35 588.29-12.4L588.29-12.4 588.29-1.8Q588.29-1.15 588.12-0.7 587.94-0.25 587.59 0.05L587.59 0.05 581.09 5.45Q580.89 5.65 580.47 5.8 580.04 5.95 579.54 5.95L579.54 5.95 571.79 5.95Q570.59 5.95 570.04 5.4 569.49 4.85 569.49 3.65L569.49 3.65 569.49-4Q569.49-4.8 569.19-5.23 568.89-5.65 568.09-5.65L568.09-5.65 568.04-5.65 568.04-1.8Q568.04-1.15 567.87-0.7 567.69-0.25 567.34 0.05Z" opacity="1" transform="matrix(1,0,0,1,0,0)" fill="#000000" class="slogan-text-1" data-fill-palette-color="secondary" id="text-1"></path></svg></g></svg></g></svg></g></svg></g><g></g></svg></g></svg></g></svg></g><g><path d="M80.505 89.132A122.216 122.216 0 0 1 315.015 89.132L312.342 89.132A119.543 119.543 0 0 0 83.178 89.132L80.505 89.132M80.505 158.068A122.216 122.216 0 0 0 315.015 158.068L312.342 158.068A119.543 119.543 0 0 1 83.178 158.068L80.505 158.068" fill="#000000" stroke="transparent" data-fill-palette-color="tertiary"></path></g></svg></g><defs></defs></svg><rect width="395.52" height="247.2" fill="none" stroke="none" visibility="hidden"></rect></g></svg></g></svg>